<?xml version="1.0" encoding="UTF-8" standalone="no"?>
<svg
   xmlns:dc="http://purl.org/dc/elements/1.1/"
   xmlns:cc="http://creativecommons.org/ns#"
   xmlns:rdf="http://www.w3.org/1999/02/22-rdf-syntax-ns#"
   xmlns:svg="http://www.w3.org/2000/svg"
   xmlns="http://www.w3.org/2000/svg"
   xmlns:sodipodi="http://sodipodi.sourceforge.net/DTD/sodipodi-0.dtd"
   xmlns:inkscape="http://www.inkscape.org/namespaces/inkscape"
   version="1.1"
   x="0px"
   y="0px"
   viewBox="0 0 100 100"
   enable-background="new 0 0 100 100"
   xml:space="preserve"
   id="svg2"
   inkscape:version="0.91 r13725"
   sodipodi:docname="noun_Ballot Box_117646.svg"
   width="100"
   height="100"><metadata
     id="metadata14"><rdf:RDF><cc:Work
         rdf:about=""><dc:format>image/svg+xml</dc:format><dc:type
           rdf:resource="http://purl.org/dc/dcmitype/StillImage" /><dc:title></dc:title></cc:Work></rdf:RDF></metadata><defs
     id="defs12" /><sodipodi:namedview
     pagecolor="#ffffff"
     bordercolor="#666666"
     borderopacity="1"
     objecttolerance="10"
     gridtolerance="10"
     guidetolerance="10"
     inkscape:pageopacity="0"
     inkscape:pageshadow="2"
     inkscape:window-width="665"
     inkscape:window-height="480"
     id="namedview10"
     showgrid="false"
     inkscape:zoom="1.888"
     inkscape:cx="50"
     inkscape:cy="62.5"
     inkscape:window-x="0"
     inkscape:window-y="0"
     inkscape:window-maximized="0"
     inkscape:current-layer="svg2" /><path
     d="m 94.591661,47.580068 -7.482,-19.913 c -0.274,-0.729 -0.97,-1.21 -1.748,-1.21 l -18.706,0 0,-20.9109999 c 0,-0.344 -0.277,-0.622 -0.623,-0.622 l -31.006,0 c -0.343,0 -0.622,0.278 -0.622,0.622 l 0,20.9099999 -18.707,0 c -0.778,0 -1.474,0.482 -1.748,1.21 l -7.482,19.914 c -0.079,0.209 -0.119,0.433 -0.119,0.656 l 0,44.790997 c 0,1.031 0.835,1.867 1.867,1.867 l 84.628,0 c 1.03,0 1.866,-0.836 1.866,-1.867 l 0,-44.790997 c 0.001,-0.224 -0.04,-0.447 -0.118,-0.656 z m -56.559,-38.8189999 24.993,0 0,17.6949999 0,3.733 0,8.623 -24.993,0 0,-8.623 0,-3.733 0,-17.6949999 z m -21.042,21.4289999 17.414,0 0,5.303 -4.876,0 c -0.272,0 -0.513,0.176 -0.593,0.435 l -1.245,3.941 c -0.061,0.189 -0.026,0.395 0.09,0.554 0.118,0.161 0.304,0.255 0.503,0.255 l 2.482,0 c 0.002,0 0.005,10e-4 0.007,10e-4 l 38.891,0 c 0.002,0 0.002,-10e-4 0.005,-10e-4 l 2.484,0 c 0.01,10e-4 0.02,0 0.024,0 0.343,0 0.622,-0.278 0.622,-0.622 0,-0.126 -0.039,-0.245 -0.103,-0.343 l -1.195,-3.786 c -0.083,-0.259 -0.323,-0.435 -0.594,-0.435 l -4.253,0 0,-5.303 17.413,0 6.312,16.801 -79.702,0 6.314,-16.8 z m 73.986,60.970997 -80.894,0 0,-41.679997 80.895,0 0,41.679997 z"
     id="path4"
     inkscape:connector-curvature="0" /></svg>