<?xml version="1.0" encoding="UTF-8" standalone="no"?>
<svg
   xmlns:dc="http://purl.org/dc/elements/1.1/"
   xmlns:cc="http://creativecommons.org/ns#"
   xmlns:rdf="http://www.w3.org/1999/02/22-rdf-syntax-ns#"
   xmlns:svg="http://www.w3.org/2000/svg"
   xmlns="http://www.w3.org/2000/svg"
   xmlns:sodipodi="http://sodipodi.sourceforge.net/DTD/sodipodi-0.dtd"
   xmlns:inkscape="http://www.inkscape.org/namespaces/inkscape"
   version="1.1"
   x="0px"
   y="0px"
   viewBox="0 0 100 100"
   enable-background="new 0 0 100 100"
   xml:space="preserve"
   id="svg2"
   inkscape:version="0.91 r13725"
   sodipodi:docname="noun_Georgia_101696.svg"
   width="100"
   height="100"><metadata
     id="metadata16"><rdf:RDF><cc:Work
         rdf:about=""><dc:format>image/svg+xml</dc:format><dc:type
           rdf:resource="http://purl.org/dc/dcmitype/StillImage" /><dc:title></dc:title></cc:Work></rdf:RDF></metadata><defs
     id="defs14" /><sodipodi:namedview
     pagecolor="#ffffff"
     bordercolor="#666666"
     borderopacity="1"
     objecttolerance="10"
     gridtolerance="10"
     guidetolerance="10"
     inkscape:pageopacity="0"
     inkscape:pageshadow="2"
     inkscape:window-width="665"
     inkscape:window-height="480"
     id="namedview12"
     showgrid="false"
     inkscape:zoom="1.888"
     inkscape:cx="50"
     inkscape:cy="62.5"
     inkscape:window-x="0"
     inkscape:window-y="0"
     inkscape:window-maximized="0"
     inkscape:current-layer="svg2" /><g
     id="g4"
     transform="translate(-0.529661,0.423729)"><path
       d="m 86.8,61 -2.9,-2.8 c 0,0 0,-0.1 0,-0.1 l 0,-2.9 c 0,-0.9 -0.4,-1.7 -1,-2.3 L 79.3,49.5 76.2,42.7 C 76,42.4 75.8,42.1 75.6,41.8 L 63.2,29 58.7,20.4 C 58.6,20.1 58.4,19.9 58.2,19.7 L 52.7,14 c -0.1,-0.1 -0.1,-0.2 0,-0.2 0.9,-0.9 1.1,-2.2 0.6,-3.4 C 52.8,9.2 51.7,8.5 50.4,8.5 l -30.6,0 c -0.9,0 -1.8,0.4 -2.4,1.1 -0.6,0.7 -0.9,1.6 -0.8,2.5 l 3.7,31.3 c 0,0.3 0.1,0.6 0.2,0.8 l 4.2,10.3 c 0,0 0,0.1 0,0.1 l -3.8,7 c -0.2,0.5 -0.4,1 -0.4,1.5 l 0,12.4 c 0,0.5 0,0.6 3.8,8.1 0.5,1 1.4,1.6 2.5,1.7 L 64.3,89 c 0,0 0.1,0 0.1,0.1 0,0 0,0.1 0,0.1 l 0,0.1 c -0.1,0.9 0.2,1.8 0.8,2.5 0.6,0.7 1.5,1.1 2.4,1.1 l 0.9,0 c 1.7,0 3.1,-1.3 3.2,-3 L 71.9,86 c 0,-0.1 0.2,-0.2 0.2,-0.1 l 2.9,1.7 c 0.5,0.3 1.1,0.5 1.6,0.5 1.7,0 3.1,-1.4 3.2,-3.1 l 0.1,-5.5 7.5,-14.8 c 0.7,-1.2 0.4,-2.8 -0.6,-3.7 z m -2,2.3 -7.5,14.8 C 77.1,78.5 77,79 77,79.5 l -0.1,5.4 c 0,0.1 -0.2,0.2 -0.2,0.1 l -2.9,-1.7 c -0.5,-0.3 -1.1,-0.5 -1.6,-0.5 -1.7,0 -3.1,1.3 -3.2,3 l -0.2,3.9 c 0,0.1 -0.1,0.1 -0.2,0.1 l -0.9,0 c 0,0 -0.1,0 -0.1,-0.1 0,0 0,-0.1 0,-0.1 l 0,-0.2 C 67.7,88.6 67.5,87.7 66.9,87.1 66.4,86.4 65.6,86 64.8,85.9 L 27.3,82.1 c -0.1,0 -0.1,0 -0.1,-0.1 -2,-4 -3.1,-6.3 -3.4,-7 l 0,-12.2 3.8,-7 C 28.1,55 28.1,54 27.8,53.1 L 23.4,43 19.7,11.7 c 0,0 0,-0.1 0,-0.1 0,0 0.1,-0.1 0.1,-0.1 l 30.5,0 c 0,0 0.1,0 0.1,0.1 0,0.1 0,0.1 0,0.2 -1.1,1.2 -1.1,3.1 0.1,4.3 l 5.5,5.7 4.5,8.6 c 0.1,0.3 0.3,0.5 0.5,0.7 l 12.4,12.8 3.1,6.8 c 0.2,0.4 0.4,0.7 0.7,1 l 3.5,3.4 c 0,0 0,0.1 0,0.1 l 0,2.9 c 0,0.9 0.4,1.7 1,2.3 l 2.9,2.8 c 0.2,0 0.2,0.1 0.2,0.1 z"
       id="path6"
       inkscape:connector-curvature="0" /></g></svg>